<?xml version="1.0" encoding="UTF-8"?>
<svg id="logosandtypes_com" data-name="logosandtypes com" xmlns="http://www.w3.org/2000/svg" viewBox="0 0 150 150">
  <defs>
    <style>
      .cls-1 {
        fill: #76c3fc;
      }

      .cls-2 {
        fill: #0041ff;
      }

      .cls-3 {
        fill: #328ff8;
      }

      .cls-4 {
        fill: none;
      }
    </style>
  </defs>
  <g id="Layer_3" data-name="Layer 3">
    <path id="Layer_3-2" data-name="Layer 3-2" class="cls-4" d="M0,0H150V150H0V0Z"/>
  </g>
  <g>
    <path class="cls-2" d="M37.19,53.8c-7.9-2.36-16.22,2.14-18.57,10.04-1.54,5.16-7,23.49-8.44,28.33-2.36,7.9,2.14,16.22,10.04,18.57,7.9,2.36,16.22-2.14,18.57-10.04,1.56-5.23,6.97-23.39,8.44-28.33,2.36-7.9-2.14-16.22-10.04-18.57h0Z"/>
    <path class="cls-3" d="M83.48,36.64c-7.9-2.36-16.22,2.14-18.57,10.04-.6,2.01-14.98,50.24-16.92,56.77-3.26,11.66-15.72,19.38-27.61,17.17,17.6,18.38,49.65,11.09,57.53-13.15,1.81-5.76,13.92-46.67,15.61-52.25,2.36-7.9-2.14-16.22-10.04-18.57h0Z"/>
    <path class="cls-1" d="M129.78,19.4c-7.9-2.36-16.22,2.14-18.57,10.04-.66,2.23-24.07,80.75-24.24,81.21-2.43,7.14-6.56,13.42-12.07,18.42,.49,.17,.99,.33,1.5,.48,18,5.36,36.93-4.61,42.76-22.34,0,0,19.2-64.31,20.67-69.24,2.36-7.9-2.14-16.22-10.04-18.57h0Z"/>
  </g>
</svg>